<svg xmlns="http://www.w3.org/2000/svg" viewBox="0 0 32 32">
  <defs>
    <linearGradient id="g" x1="0" y1="0" x2="1" y2="1">
      <stop offset="0%" stop-color="#8b5cf6"/>
      <stop offset="100%" stop-color="#ec4899"/>
    </linearGradient>
    <radialGradient id="glow" cx="50%" cy="50%" r="50%">
      <stop offset="0%" stop-color="#8b5cf6" stop-opacity="0.4"/>
      <stop offset="100%" stop-color="#8b5cf6" stop-opacity="0"/>
    </radialGradient>
  </defs>
  <rect width="32" height="32" rx="7" fill="#0a0a0f"/>
  <circle cx="16" cy="16" r="10" fill="url(#glow)"/>
  <line x1="16" y1="16" x2="7"  y2="8"  stroke="url(#g)" stroke-width="1.2" stroke-linecap="round" opacity="0.65"/>
  <line x1="16" y1="16" x2="25" y2="8"  stroke="url(#g)" stroke-width="1.2" stroke-linecap="round" opacity="0.65"/>
  <line x1="16" y1="16" x2="26" y2="18" stroke="url(#g)" stroke-width="1.2" stroke-linecap="round" opacity="0.65"/>
  <line x1="16" y1="16" x2="19" y2="26" stroke="url(#g)" stroke-width="1.2" stroke-linecap="round" opacity="0.65"/>
  <line x1="16" y1="16" x2="9"  y2="25" stroke="url(#g)" stroke-width="1.2" stroke-linecap="round" opacity="0.65"/>
  <line x1="16" y1="16" x2="6"  y2="17" stroke="url(#g)" stroke-width="1.2" stroke-linecap="round" opacity="0.65"/>
  <circle cx="7"  cy="8"  r="2"   fill="url(#g)" opacity="0.7"/>
  <circle cx="25" cy="8"  r="2"   fill="url(#g)" opacity="0.7"/>
  <circle cx="26" cy="18" r="2"   fill="url(#g)" opacity="0.7"/>
  <circle cx="19" cy="26" r="2"   fill="url(#g)" opacity="0.7"/>
  <circle cx="9"  cy="25" r="2"   fill="url(#g)" opacity="0.7"/>
  <circle cx="6"  cy="17" r="2"   fill="url(#g)" opacity="0.7"/>
  <circle cx="16" cy="16" r="4.5" fill="url(#g)"/>
  <circle cx="16" cy="16" r="2.5" fill="white" opacity="0.9"/>
</svg>
